<?xml version="1.0" encoding="UTF-8"?>
<svg xmlns="http://www.w3.org/2000/svg" xmlns:xlink="http://www.w3.org/1999/xlink" width="70pt" height="70pt" viewBox="0 0 70 70" version="1.1">
<g id="surface1">
<path style=" stroke:none;fill-rule:nonzero;fill:rgb(255,255,255);fill-opacity:1;" d="M 38.71875 16.515625 L 66.28125 16.515625 L 66.28125 54.25 L 38.71875 54.25 Z M 38.71875 16.515625 "/>
<path style=" stroke:none;fill-rule:nonzero;fill:rgb(0,111,194);fill-opacity:1;" d="M 65.734375 14.984375 L 39.265625 14.984375 L 39.265625 3.609375 L 2.1875 9.953125 L 2.1875 60.046875 L 39.375 66.5 L 39.375 55.78125 L 65.84375 55.78125 C 67.046875 55.78125 67.8125 54.796875 67.8125 53.59375 L 67.8125 17.171875 C 67.8125 15.96875 66.828125 14.984375 65.734375 14.984375 Z M 65.625 53.59375 L 39.265625 53.59375 L 39.265625 50.75 L 41.453125 50.75 C 42.21875 50.75 42.765625 50.203125 43.75 49 C 45.5 47.03125 48.015625 43.640625 49.328125 41.125 C 49.984375 40.03125 50.640625 38.828125 50.640625 38.609375 C 50.640625 38.5 50.421875 38.28125 50.421875 38.28125 L 50.09375 37.953125 C 49.984375 37.84375 49.765625 37.84375 49.765625 37.953125 C 49.765625 37.953125 42.328125 45.5 41.453125 46.265625 C 41.234375 46.484375 40.6875 46.484375 40.46875 46.484375 L 39.15625 46.484375 L 39.15625 35.65625 C 40.03125 36.203125 40.90625 36.859375 41.5625 37.1875 C 42.765625 37.84375 43.96875 38.5 44.078125 38.5 C 44.1875 38.5 44.40625 38.28125 44.40625 38.28125 L 44.734375 37.953125 C 44.84375 37.84375 44.84375 37.625 44.734375 37.625 C 44.734375 37.625 41.453125 34.453125 39.046875 32.046875 L 39.046875 24.28125 L 41.78125 24.28125 C 42 24.28125 42.21875 24.390625 42.328125 24.5 L 44.078125 26.25 C 44.296875 26.46875 44.40625 26.46875 44.40625 26.25 L 45.828125 24.28125 C 45.9375 24.0625 45.9375 23.84375 45.828125 23.734375 C 45.828125 23.734375 42.765625 20.890625 42.546875 20.671875 C 42.21875 20.453125 42.109375 20.125 41.5625 20.125 L 39.046875 20.125 L 39.046875 17.28125 L 65.625 17.28125 Z M 65.625 53.59375 "/>
<path style=" stroke:none;fill-rule:nonzero;fill:rgb(0,111,194);fill-opacity:1;" d="M 61.140625 39.15625 C 59.171875 37.40625 55.78125 34.890625 53.265625 33.578125 C 52.171875 32.921875 50.96875 32.265625 50.75 32.265625 C 50.640625 32.265625 50.421875 32.484375 50.421875 32.484375 L 50.09375 32.8125 C 49.984375 32.921875 49.984375 33.140625 50.09375 33.140625 C 50.09375 33.140625 57.640625 40.578125 58.40625 41.453125 C 58.625 41.671875 58.625 42.109375 58.625 42.328125 L 58.625 46.15625 C 58.625 46.375 58.40625 46.484375 58.296875 46.484375 L 53.046875 46.484375 C 52.828125 46.484375 52.609375 46.375 52.5 46.265625 L 50.75 44.515625 C 50.53125 44.296875 50.421875 44.296875 50.421875 44.515625 L 49 46.484375 C 48.890625 46.703125 48.890625 46.921875 49 47.03125 C 49 47.03125 52.0625 49.875 52.28125 50.09375 C 52.609375 50.3125 52.828125 50.640625 53.265625 50.640625 L 61.796875 50.640625 C 62.453125 50.640625 62.890625 50.203125 62.890625 49.546875 L 62.890625 41.453125 C 62.890625 40.796875 62.34375 40.140625 61.140625 39.15625 Z M 61.140625 39.15625 "/>
<path style=" stroke:none;fill-rule:nonzero;fill:rgb(0,111,194);fill-opacity:1;" d="M 44.296875 32.15625 C 44.296875 32.265625 44.515625 32.484375 44.515625 32.484375 L 44.84375 32.8125 C 44.953125 32.921875 45.171875 32.921875 45.171875 32.8125 C 45.171875 32.8125 52.609375 25.265625 53.484375 24.5 C 53.703125 24.28125 54.25 24.28125 54.46875 24.28125 L 58.296875 24.28125 C 58.515625 24.28125 58.625 24.5 58.625 24.609375 L 58.625 29.859375 C 58.625 30.078125 58.515625 30.296875 58.40625 30.40625 L 56.65625 32.15625 C 56.4375 32.375 56.4375 32.484375 56.65625 32.484375 L 58.625 33.90625 C 58.84375 34.015625 59.0625 34.015625 59.171875 33.90625 C 59.171875 33.90625 62.015625 30.84375 62.234375 30.625 C 62.453125 30.296875 62.78125 30.1875 62.78125 29.640625 L 62.78125 21.109375 C 62.78125 20.453125 62.34375 20.015625 61.6875 20.015625 L 53.59375 20.015625 C 52.828125 20.015625 52.28125 20.5625 51.296875 21.765625 C 49.546875 23.734375 47.03125 27.125 45.71875 29.640625 C 45.0625 30.734375 44.40625 32.046875 44.296875 32.15625 Z M 44.296875 32.15625 "/>
<path style=" stroke:none;fill-rule:nonzero;fill:rgb(255,255,255);fill-opacity:1;" d="M 25.046875 46.484375 L 14.984375 45.609375 L 14.984375 24.28125 L 24.28125 23.515625 L 24.28125 27.78125 L 18.59375 27.890625 L 18.59375 32.8125 L 24.171875 32.921875 L 24.171875 37.078125 L 18.59375 36.859375 L 18.59375 41.78125 L 25.046875 42.328125 Z M 25.046875 46.484375 "/>
</g>
</svg>
