<?xml version="1.0" encoding="UTF-8"?>
<svg xmlns="http://www.w3.org/2000/svg" xmlns:xlink="http://www.w3.org/1999/xlink" width="70pt" height="70pt" viewBox="0 0 70 70" version="1.1">
<g id="surface1">
<path style=" stroke:none;fill-rule:nonzero;fill:rgb(94.901961%,78.431373%,6.666667%);fill-opacity:1;" d="M 61.515625 53.25 L 59.851563 53.25 L 59.851563 50.449219 L 61.515625 50.449219 C 64.476563 50.449219 66.878906 48.046875 66.878906 45.085938 L 66.878906 16.710938 C 66.890625 13.71875 64.503906 11.269531 61.515625 11.199219 L 8.835938 11.199219 C 5.78125 11.246094 3.289063 13.660156 3.148438 16.710938 L 3.148438 45.113281 C 3.148438 48.074219 5.871094 50.476563 8.835938 50.476563 L 10.851563 50.476563 L 10.851563 53.277344 L 8.835938 53.277344 C 4.339844 53.257813 0.378906 49.609375 0.378906 45.113281 L 0.378906 16.710938 C 0.519531 12.125 4.246094 8.460938 8.835938 8.398438 L 61.515625 8.398438 C 66.039063 8.488281 69.660156 12.183594 69.648438 16.710938 L 69.648438 45.113281 C 69.644531 49.605469 66.007813 53.246094 61.515625 53.25 "/>
<path style=" stroke:none;fill-rule:nonzero;fill:rgb(94.901961%,78.431373%,6.666667%);fill-opacity:1;" d="M 17.5 60.199219 C 15.359375 60.183594 13.636719 58.441406 13.648438 56.300781 L 13.648438 47.304688 C 13.632813 45.164063 15.359375 43.414063 17.5 43.398438 C 19.640625 43.414063 21.363281 45.160156 21.351563 47.300781 L 21.351563 56.292969 C 21.367188 58.4375 19.640625 60.183594 17.5 60.199219 Z M 17.5 60.199219 "/>
<path style=" stroke:none;fill-rule:nonzero;fill:rgb(94.901961%,78.431373%,6.666667%);fill-opacity:1;" d="M 29.398438 60.199219 C 28.386719 60.207031 27.410156 59.8125 26.6875 59.097656 C 25.964844 58.386719 25.554688 57.414063 25.550781 56.398438 L 25.550781 33.902344 C 25.550781 31.773438 27.273438 30.050781 29.398438 30.050781 C 31.527344 30.050781 33.25 31.773438 33.25 33.902344 L 33.25 56.398438 C 33.246094 57.414063 32.835938 58.386719 32.113281 59.097656 C 31.390625 59.8125 30.414063 60.207031 29.398438 60.199219 "/>
<path style=" stroke:none;fill-rule:nonzero;fill:rgb(94.901961%,78.431373%,6.666667%);fill-opacity:1;" d="M 53.199219 60.199219 C 51.09375 60.21875 49.375 58.53125 49.351563 56.425781 L 49.351563 24.773438 C 49.351563 22.648438 51.074219 20.921875 53.199219 20.921875 C 55.328125 20.921875 57.050781 22.648438 57.050781 24.773438 L 57.050781 56.421875 C 57.03125 58.527344 55.308594 60.21875 53.199219 60.199219 "/>
<path style=" stroke:none;fill-rule:nonzero;fill:rgb(94.901961%,78.431373%,6.666667%);fill-opacity:1;" d="M 41.300781 60.199219 C 40.28125 60.203125 39.304688 59.800781 38.582031 59.082031 C 37.859375 58.367188 37.453125 57.390625 37.449219 56.371094 L 37.449219 39.527344 C 37.449219 37.402344 39.171875 35.679688 41.300781 35.679688 C 43.425781 35.679688 45.148438 37.402344 45.148438 39.527344 L 45.148438 56.371094 C 45.148438 57.390625 44.742188 58.367188 44.019531 59.082031 C 43.296875 59.800781 42.320313 60.203125 41.300781 60.199219 "/>
</g>
</svg>
